<svg width="177" height="40" viewBox="0 0 177 40" fill="none" xmlns="http://www.w3.org/2000/svg">
<rect x="4" y="4" width="173" height="24" fill="white"/>
<rect x="4" y="28" width="11.8368" height="4" fill="white"/>
<path d="M0 0H177V4H0V0Z" fill="#FFBE1A"/>
<rect y="40" width="40" height="4" transform="rotate(-90 0 40)" fill="#FFBE1A"/>
<rect x="17" y="40" width="11" height="3" transform="rotate(-90 17 40)" fill="#FFBE1A"/>
<rect x="16" y="28" width="14" height="4" fill="#FFBE1A"/>
<rect x="24" y="32" width="32" height="4" transform="rotate(-90 24 32)" fill="#FFBE1A"/>
<rect x="30" y="28" width="143" height="4" fill="#FFBE1A"/>
<rect x="50" y="30" width="26" height="4" transform="rotate(-90 50 30)" fill="#FFBE1A"/>
<rect x="28" y="12" width="16" height="4" fill="#FFBE1A"/>
<rect x="36" y="20" width="8" height="4" fill="#FFBE1A"/>
<rect x="62" y="20" width="8" height="8" transform="rotate(-90 62 20)" fill="#FFBE1A"/>
<rect x="70" y="29" width="25" height="4" transform="rotate(-90 70 29)" fill="#FFBE1A"/>
<rect x="94" y="28" width="24" height="4" transform="rotate(-90 94 28)" fill="#FFBE1A"/>
<rect x="114" y="28" width="24" height="4" transform="rotate(-90 114 28)" fill="#FFBE1A"/>
<rect x="137" y="28" width="24" height="4" transform="rotate(-90 137 28)" fill="#FFBE1A"/>
<rect x="149" y="40" width="36" height="4" transform="rotate(-90 149 40)" fill="#FFBE1A"/>
<rect x="173" y="32" width="28" height="4" transform="rotate(-90 173 32)" fill="#FFBE1A"/>
<rect x="82" y="12" width="8" height="4" transform="rotate(-90 82 12)" fill="#FFBE1A"/>
<rect x="126" y="12" width="8" height="4" transform="rotate(-90 126 12)" fill="#FFBE1A"/>
<rect x="126" y="28" width="8" height="4" transform="rotate(-90 126 28)" fill="#FFBE1A"/>
<rect x="82" y="28" width="8" height="4" transform="rotate(-90 82 28)" fill="#FFBE1A"/>
<rect x="90" y="14" width="4" height="4" fill="#FFBE1A"/>
<rect x="106" y="8" width="8" height="4" fill="#FFBE1A"/>
<rect x="98" y="16" width="8" height="4" fill="#FFBE1A"/>
<rect x="16" y="20" width="8" height="4" transform="rotate(-90 16 20)" fill="#FFBE1A"/>
<rect x="165" y="20" width="8" height="4" transform="rotate(-90 165 20)" fill="#FFBE1A"/>
<rect x="2" y="32" width="15" height="8" fill="#FFBE1A"/>
<rect x="153" y="32" width="16" height="8" fill="#FFBE1A"/>
<rect x="153" y="28" width="12" height="4" fill="white"/>
</svg>
